<svg width="1200" height="900" viewBox="0 0 1200 900" fill="none" xmlns="http://www.w3.org/2000/svg">
  <rect width="1200" height="900" rx="48" fill="#07101A"/>
  <rect x="46" y="46" width="1108" height="808" rx="36" fill="url(#paint0_linear)"/>
  <circle cx="288" cy="182" r="190" fill="url(#paint1_radial)" fill-opacity="0.52"/>
  <circle cx="944" cy="714" r="210" fill="url(#paint2_radial)" fill-opacity="0.32"/>
  <path d="M152 600C314 548 494 534 660 564C764 582 874 626 1040 726" stroke="#99BDE4" stroke-opacity="0.24" stroke-width="4"/>
  <path d="M198 694C364 598 554 568 716 596C832 616 920 656 1010 732" stroke="#DDF1FF" stroke-opacity="0.14" stroke-width="3"/>
  <rect x="420" y="236" width="360" height="236" rx="34" fill="#0B182B" stroke="#DDEEFF" stroke-opacity="0.18"/>
  <path d="M474 310H724" stroke="#CAE3FF" stroke-opacity="0.22" stroke-width="4"/>
  <path d="M502 388H694" stroke="#CAE3FF" stroke-opacity="0.22" stroke-width="4"/>
  <rect x="566" y="278" width="68" height="68" rx="16" fill="#12223A"/>
  <path d="M600 292V332M580 312H620" stroke="#F4FBFF" stroke-width="6" stroke-linecap="round"/>
  <path d="M182 160H438" stroke="#A6C9EB" stroke-opacity="0.22" stroke-width="2"/>
  <path d="M764 782H1022" stroke="#A6C9EB" stroke-opacity="0.18" stroke-width="2"/>
  <text x="122" y="144" fill="#EDF7FF" fill-opacity="0.88" font-family="Arial, sans-serif" font-size="46" letter-spacing="6">DROP WINDOW</text>
  <defs>
    <linearGradient id="paint0_linear" x1="600" y1="46" x2="600" y2="854" gradientUnits="userSpaceOnUse">
      <stop stop-color="#09131F"/>
      <stop offset="1" stop-color="#06101A"/>
    </linearGradient>
    <radialGradient id="paint1_radial" cx="0" cy="0" r="1" gradientUnits="userSpaceOnUse" gradientTransform="translate(288 182) rotate(90) scale(190)">
      <stop stop-color="#7DB8FF"/>
      <stop offset="1" stop-color="#7DB8FF" stop-opacity="0"/>
    </radialGradient>
    <radialGradient id="paint2_radial" cx="0" cy="0" r="1" gradientUnits="userSpaceOnUse" gradientTransform="translate(944 714) rotate(90) scale(210)">
      <stop stop-color="#D8E8FF"/>
      <stop offset="1" stop-color="#D8E8FF" stop-opacity="0"/>
    </radialGradient>
  </defs>
</svg>
