<svg width="1200" height="900" viewBox="0 0 1200 900" fill="none" xmlns="http://www.w3.org/2000/svg">
  <rect width="1200" height="900" rx="48" fill="#07101D"/>
  <rect x="46" y="46" width="1108" height="808" rx="36" fill="url(#paint0_linear)"/>
  <circle cx="982" cy="198" r="206" fill="url(#paint1_radial)" fill-opacity="0.7"/>
  <circle cx="196" cy="714" r="232" fill="url(#paint2_radial)" fill-opacity="0.4"/>
  <path d="M116 604L384 348H734L468 604H116Z" fill="#0E1C32" stroke="#375E8A" stroke-opacity="0.45"/>
  <path d="M468 604L734 348H1090L824 604H468Z" fill="#0D172A" stroke="#7297B8" stroke-opacity="0.32"/>
  <path d="M326 260H524" stroke="#C8E3FF" stroke-opacity="0.5" stroke-width="6" stroke-linecap="round"/>
  <path d="M738 690H952" stroke="#C8E3FF" stroke-opacity="0.3" stroke-width="6" stroke-linecap="round"/>
  <rect x="522" y="388" width="132" height="132" rx="24" fill="#13243E" stroke="#9BC4FF" stroke-opacity="0.25"/>
  <path d="M564 454H612M588 430V478" stroke="#DFF2FF" stroke-width="6" stroke-linecap="round"/>
  <path d="M132 170H358" stroke="#A7CAED" stroke-opacity="0.22" stroke-width="2"/>
  <path d="M842 150H1068" stroke="#A7CAED" stroke-opacity="0.22" stroke-width="2"/>
  <path d="M168 730H392" stroke="#A7CAED" stroke-opacity="0.22" stroke-width="2"/>
  <text x="118" y="144" fill="#E9F4FF" fill-opacity="0.88" font-family="Arial, sans-serif" font-size="46" letter-spacing="6">TERMINAL RUSH</text>
  <defs>
    <linearGradient id="paint0_linear" x1="600" y1="46" x2="600" y2="854" gradientUnits="userSpaceOnUse">
      <stop stop-color="#0A1424"/>
      <stop offset="1" stop-color="#07101C"/>
    </linearGradient>
    <radialGradient id="paint1_radial" cx="0" cy="0" r="1" gradientUnits="userSpaceOnUse" gradientTransform="translate(982 198) rotate(90) scale(206)">
      <stop stop-color="#57A1FF"/>
      <stop offset="1" stop-color="#57A1FF" stop-opacity="0"/>
    </radialGradient>
    <radialGradient id="paint2_radial" cx="0" cy="0" r="1" gradientUnits="userSpaceOnUse" gradientTransform="translate(196 714) rotate(90) scale(232)">
      <stop stop-color="#D7E9FF"/>
      <stop offset="1" stop-color="#D7E9FF" stop-opacity="0"/>
    </radialGradient>
  </defs>
</svg>
